<?xml version="1.0" standalone="no"?><!DOCTYPE svg PUBLIC "-//W3C//DTD SVG 1.1//EN" "http://www.w3.org/Graphics/SVG/1.1/DTD/svg11.dtd"><svg class="icon" height="512" viewBox="0 0 1024 1024" version="1.1" xmlns="http://www.w3.org/2000/svg"><path d="M456.661333 556.245333h22.144v138.282667h-22.144zM512 0C229.248 0 0 229.248 0 512s229.248 512 512 512 512-229.248 512-512S794.752 0 512 0z m94.037333 462.208a16.597333 16.597333 0 1 1 33.194667 0v66.389333a16.597333 16.597333 0 1 1-33.194667 0v-66.389333z m-138.282666-149.333333a44.245333 44.245333 0 1 1 0 88.448 44.245333 44.245333 0 0 1 0-88.448z m215.722666 325.888v72.405333a16.597333 16.597333 0 0 1-16.597333 16.597333H357.12a16.597333 16.597333 0 1 1 0-33.194666h66.389333V452.693333c-48.384-21.162667-82.986667-75.776-82.986666-139.861333a16.597333 16.597333 0 1 1 33.194666 0c0 52.309333 28.330667 96.128 66.858667 110.634667H494.933333c38.570667-14.506667 66.858667-58.325333 66.858667-110.634667a16.597333 16.597333 0 1 1 33.194667 0c0 64.085333-34.602667 118.698667-82.986667 139.861333v241.834667h138.282667V422.784a16.597333 16.597333 0 1 1 33.194666 0v215.978667z m0-303.786667a16.597333 16.597333 0 1 1-33.194666 0v-22.101333a16.597333 16.597333 0 1 1 33.194666 0v22.101333z" /></svg>